<?xml version="1.0" encoding="UTF-8"?><!-- Generated by Pixelmator Pro 3.0 -->
<svg width="662" height="669" viewBox="0 0 662 669" xmlns="http://www.w3.org/2000/svg">
    <g id="Group">
        <path id="Path" fill="none" stroke="#33363f" stroke-width="66.666664" stroke-linecap="round"
            stroke-linejoin="round"
            d="M 197.666656 335 L 197.666656 201.666687 C 197.666656 128.028687 257.362 68.333313 331 68.333313 L 331 68.333313 C 404.636658 68.333313 464.333313 128.028687 464.333313 201.666687 L 464.333313 335" />
        <path id="path1" fill="none" stroke="#33363f" stroke-width="66.666664"
            stroke-linecap="round" stroke-linejoin="round"
            d="M 54.144997 512.73999 C 58.980667 570.77002 61.398666 599.783325 80.535004 617.391968 C 99.671005 635 128.786667 635 187.01767 635 L 474.983337 635 C 533.213379 635 562.329956 635 581.466675 617.391968 C 600.599976 599.783325 603.02002 570.77002 607.856689 512.73999 L 624.983337 307.203308 C 627.799988 273.419983 629.206665 256.526672 619.303284 245.763367 C 609.399963 235 592.450012 235 558.546692 235 L 103.453339 235 C 69.551666 235 52.60067 235 42.697334 245.763367 C 32.793999 256.526672 34.201668 273.419983 37.016998 307.203308 L 54.144997 512.73999 Z" />
    </g>
</svg>
